<svg xmlns="http://www.w3.org/2000/svg" viewBox="0 0 45 44">
  <path id="favicon" d="M43.7037 24.2565C46.2669 36.3377 38.1037 45.2545 26.4499 43.8554C26.4068 43.8474 26.3673 43.826 26.3372 43.7943C26.3071 43.7626 26.2878 43.7222 26.2821 43.6789C26.2765 43.6357 26.2847 43.5917 26.3057 43.5534C26.3267 43.5151 26.3594 43.4843 26.399 43.4657C27.6122 42.9183 28.7887 42.2935 29.921 41.595C30.0406 41.5246 30.1741 41.4808 30.3123 41.4664C32.8017 41.2824 35.1831 40.379 37.1645 38.867C41.9818 35.2816 42.6627 27.8224 40.6004 22.1091C38.2524 14.989 32.4451 8.53914 25.6868 5.10573C25.6492 5.08549 25.6186 5.05437 25.5991 5.01647C25.5796 4.97857 25.5721 4.93568 25.5777 4.89346C25.5832 4.85124 25.6014 4.81168 25.63 4.77999C25.6585 4.74831 25.6961 4.726 25.7376 4.71601C26.8803 4.50362 28.0432 4.41866 29.2048 4.4627C29.3733 4.47153 29.5365 4.52392 29.6783 4.61469C31.409 5.71883 33.0311 6.98322 34.523 8.39105C39.0781 12.7247 42.4201 18.1457 43.7037 24.2565ZM0.477154 19.7435C-2.08607 7.66228 6.07711 -1.25446 17.731 0.144626C17.7743 0.152038 17.8142 0.172969 17.8448 0.204414C17.8754 0.235858 17.8952 0.276179 17.9013 0.319552C17.9074 0.362926 17.8995 0.407108 17.8787 0.445716C17.858 0.484323 17.8254 0.515364 17.7858 0.534344C16.5659 1.08108 15.3829 1.70593 14.2442 2.40499C14.1246 2.47537 13.9911 2.51923 13.8529 2.53359C11.3635 2.71765 8.98212 3.62104 7.00066 5.13301C2.18337 8.71842 1.50244 16.1776 3.56867 21.8909C5.91667 29.011 11.7201 35.4609 18.4784 38.8943C18.516 38.9145 18.5466 38.9456 18.5661 38.9835C18.5856 39.0214 18.593 39.0643 18.5875 39.1065C18.582 39.1488 18.5638 39.1883 18.5352 39.22C18.5067 39.2517 18.4691 39.274 18.4276 39.284C17.2862 39.4964 16.1246 39.5813 14.9643 39.5373C14.7946 39.5286 14.6301 39.4762 14.4868 39.3853C12.762 38.2728 11.1464 37.0005 9.66172 35.5856C5.09879 31.2753 1.75681 25.8543 0.477154 19.7435ZM19.8246 43.5163C7.69332 46.069 -1.25645 37.9395 0.14452 26.3337C0.152538 26.2907 0.174003 26.2515 0.205832 26.2215C0.237662 26.1915 0.278221 26.1722 0.321687 26.1666C0.365153 26.161 0.409299 26.1692 0.447776 26.1901C0.486252 26.211 0.517081 26.2435 0.535852 26.283C1.08723 27.4966 1.7146 28.6746 2.41425 29.8099C2.4866 29.9283 2.53077 30.0617 2.54339 30.1997C2.72829 32.6776 3.63545 35.0479 5.15358 37.0197C8.75383 41.8172 16.2478 42.4992 21.9809 40.4415C29.1305 38.1031 35.6109 32.3236 39.0586 25.5893C39.0776 25.5498 39.1088 25.5174 39.1476 25.4967C39.1863 25.4761 39.2307 25.4682 39.2742 25.4743C39.3178 25.4803 39.3583 25.5 39.3899 25.5305C39.4214 25.561 39.4425 25.6007 39.4499 25.6439C39.6652 26.7803 39.7506 27.9373 39.7043 29.0929C39.6954 29.2606 39.6428 29.4231 39.5517 29.5644C38.4355 31.2829 37.1579 32.8918 35.7362 34.3696C31.3924 38.9176 25.9568 42.2653 19.8207 43.5241L19.8246 43.5163ZM44.0363 17.6585C44.0268 17.7002 44.0048 17.738 43.9732 17.7668C43.9417 17.7957 43.902 17.8144 43.8596 17.8203C43.8171 17.8262 43.7738 17.8191 43.7355 17.8C43.6972 17.7808 43.6656 17.7505 43.645 17.7131C43.0902 16.5067 42.4616 15.3353 41.7627 14.2056C41.6872 14.0881 41.6403 13.9547 41.6257 13.8159C41.441 11.3392 40.5338 8.97009 39.0155 6.99976C35.4192 2.20234 27.9252 1.52033 22.1883 3.57804C15.0386 5.91635 8.56208 11.6959 5.11444 18.4263C5.09412 18.4637 5.06286 18.4942 5.0248 18.5136C4.98674 18.533 4.94367 18.5404 4.90128 18.5349C4.85888 18.5294 4.81916 18.5113 4.78735 18.4828C4.75554 18.4544 4.73314 18.417 4.72311 18.3756C4.50905 17.2391 4.42502 16.082 4.47265 14.9266C4.47781 14.7582 4.53073 14.5948 4.62528 14.4551C5.74007 12.7367 7.01633 11.1277 8.43685 9.64984C12.7885 5.10573 18.2201 1.77753 24.368 0.499259C36.4797 -2.08067 45.4412 6.05664 44.0324 17.6663L44.0363 17.6585Z" />
  <style>
    @media (prefers-color-scheme: light) { #favicon { fill: #000; } }
    @media (prefers-color-scheme: dark) { #favicon { fill: #FFF; } }
  </style>
</svg>
